# xmcd
#
# Track frame offsets:
#	150
#	3943
#	18172
#	29450
#	39663
#	47551
#	57530
#	69064
#	79210
#	91054
#	97665
#	102111
#	115319
#	117340
#	124016
#	136471
#	142402
#	154178
#	164363
#
# Disc length: 2358 seconds
#
# Revision: 0
# Processed by: cddbd v1.5.2PL0 Copyright (c) Steve Scherf et al.
# Submitted via: EasyCDDAExtractor 16.0.8.2
#
DISCID=f4093413
DTITLE=Presser Gábor - Túl a maszat hegyen
DYEAR=1900
DGENRE=
TTITLE0=Maszatdalocska
TTITLE1=Induló az indulásról
TTITLE2=A szösz dicsérete
TTITLE3=Bit tegyen egy angol bárd
TTITLE4=Maszat dal
TTITLE5=Átok ül a kis váramon
TTITLE6=A bús piros vödör dala
TTITLE7=Szegény árva leány
TTITLE8=Büdös úr hova tart a világ
TTITLE9=Gyomorrontás ária
TTITLE10=Takarító kórus
TTITLE11=Lecsöppenő kecsöp Benő
TTITLE12=A jó pali kalóz
TTITLE13=Vix
TTITLE14=Fogd a pénzt
TTITLE15=A pacacár áriája
TTITLE16=Na szóval így
TTITLE17=Fürdés duett
TTITLE18=Finálé
EXTD=
EXTT0=
EXTT1=
EXTT2=
EXTT3=
EXTT4=
EXTT5=
EXTT6=
EXTT7=
EXTT8=
EXTT9=
EXTT10=
EXTT11=
EXTT12=
EXTT13=
EXTT14=
EXTT15=
EXTT16=
EXTT17=
EXTT18=
PLAYORDER=
